REM DIRINDEX 1\2,1\4,1\3\5,1\3\6,1\3\7
REM DIRNAME folder01,folder02,folder03,folder04,folder05,folder06,folder07
TITLE ""
FILE "CD1Track51.mp3" MP3
  TRACK 01 AUDIO
    TITLE "0:"
    INDEX 01 00:00:00
  TRACK 02 AUDIO
    TITLE "5:cjc082_0926"
    INDEX 01 00:00:31
  TRACK 03 AUDIO
    TITLE "0:"
    INDEX 01 00:01:40
  TRACK 04 AUDIO
    TITLE "6:cjc082_0927"
    INDEX 01 00:02:22
  TRACK 05 AUDIO
    TITLE "0:"
    INDEX 01 00:05:34
  TRACK 06 AUDIO
    TITLE "5:cjc082_0928"
    INDEX 01 00:06:10
  TRACK 07 AUDIO
    TITLE "0:"
    INDEX 01 00:07:03
  TRACK 08 AUDIO
    TITLE "6:cjc082_0929"
    INDEX 01 00:07:52
  TRACK 09 AUDIO
    TITLE "0:"
    INDEX 01 00:08:52
  TRACK 10 AUDIO
    TITLE "5:cjc082_0930"
    INDEX 01 00:09:36
  TRACK 11 AUDIO
    TITLE "0:"
    INDEX 01 00:10:49
  TRACK 12 AUDIO
    TITLE "6:cjc082_0931"
    INDEX 01 00:11:31
  TRACK 13 AUDIO
    TITLE "0:"
    INDEX 01 00:12:32
  TRACK 14 AUDIO
    TITLE "5:cjc082_0932"
    INDEX 01 00:13:10
  TRACK 15 AUDIO
    TITLE "0:"
    INDEX 01 00:14:43
  TRACK 16 AUDIO
    TITLE "6:cjc082_0933"
    INDEX 01 00:15:21
  TRACK 17 AUDIO
    TITLE "0:"
    INDEX 01 00:16:32
  TRACK 18 AUDIO
    TITLE "5:cjc082_0934"
    INDEX 01 00:17:06
  TRACK 19 AUDIO
    TITLE "0:"
    INDEX 01 00:18:11
  TRACK 20 AUDIO
    TITLE "6:cjc082_0935"
    INDEX 01 00:18:72
  TRACK 21 AUDIO
    TITLE "0:"
    INDEX 01 00:21:19
  TRACK 22 AUDIO
    TITLE "5:cjc082_0936"
    INDEX 01 00:21:74
  TRACK 23 AUDIO
    TITLE "0:"
    INDEX 01 00:23:22
  TRACK 24 AUDIO
    TITLE "6:cjc082_0937"
    INDEX 01 00:24:02
  TRACK 25 AUDIO
    TITLE "0:"
    INDEX 01 00:25:05
  TRACK 26 AUDIO
    TITLE "5:cjc082_0938"
    INDEX 01 00:25:54
  TRACK 27 AUDIO
    TITLE "0:"
    INDEX 01 00:26:66
  TRACK 28 AUDIO
    TITLE "6:cjc082_0939"
    INDEX 01 00:27:45
  TRACK 29 AUDIO
    TITLE "0:"
    INDEX 01 00:28:59
  TRACK 30 AUDIO
    TITLE "5:cjc082_0940"
    INDEX 01 00:29:36
  TRACK 31 AUDIO
    TITLE "0:"
    INDEX 01 00:30:61
  TRACK 32 AUDIO
    TITLE "6:cjc082_0941"
    INDEX 01 00:31:39
  TRACK 33 AUDIO
    TITLE "0:"
    INDEX 01 00:32:52
  TRACK 34 AUDIO
    TITLE "5:cjc082_0942"
    INDEX 01 00:33:34
  TRACK 35 AUDIO
    TITLE "0:"
    INDEX 01 00:35:04
  TRACK 36 AUDIO
    TITLE "6:cjc082_0943"
    INDEX 01 00:35:57
  TRACK 37 AUDIO
    TITLE "0:"
    INDEX 01 00:37:08
  TRACK 38 AUDIO
    TITLE "5:cjc082_0944"
    INDEX 01 00:37:61
  TRACK 39 AUDIO
    TITLE "0:"
    INDEX 01 00:38:67
  TRACK 40 AUDIO
    TITLE "6:cjc082_0945"
    INDEX 01 00:39:51
  TRACK 41 AUDIO
    TITLE "0:"
    INDEX 01 00:41:59
  TRACK 42 AUDIO
    TITLE "5:cjc082_0946"
    INDEX 01 00:42:33
  TRACK 43 AUDIO
    TITLE "0:"
    INDEX 01 00:43:62
  TRACK 44 AUDIO
    TITLE "6:cjc082_0947"
    INDEX 01 00:44:42
  TRACK 45 AUDIO
    TITLE "0:"
    INDEX 01 00:46:31
  TRACK 46 AUDIO
    TITLE "5:cjc082_0948"
    INDEX 01 00:47:09
  TRACK 47 AUDIO
    TITLE "0:"
    INDEX 01 00:48:08
  TRACK 48 AUDIO
    TITLE "6:cjc082_0949"
    INDEX 01 00:48:69
  TRACK 49 AUDIO
    TITLE "0:"
    INDEX 01 00:49:67
  TRACK 50 AUDIO
    TITLE "5:cjc082_0950"
    INDEX 01 00:50:46
  TRACK 51 AUDIO
    TITLE "0:"
    INDEX 01 00:51:62
  TRACK 52 AUDIO
    TITLE "6:cjc082_0951"
    INDEX 01 00:52:43
  TRACK 53 AUDIO
    TITLE "0:"
    INDEX 01 00:53:49
  TRACK 54 AUDIO
    TITLE "5:cjc082_0952"
    INDEX 01 00:54:30
  TRACK 55 AUDIO
    TITLE "0:"
    INDEX 01 00:55:44
  TRACK 56 AUDIO
    TITLE "6:cjc082_0953"
    INDEX 01 00:56:27
  TRACK 57 AUDIO
    TITLE "0:"
    INDEX 01 00:57:25
  TRACK 58 AUDIO
    TITLE "7:cjc082_0954"
    INDEX 01 00:58:73
  TRACK 59 AUDIO
    TITLE "0:"
    INDEX 01 01:09:22
